# xmcd
#
# Track frame offsets:
# 150
# 1606
# 22269
# 40551
# 57503
# 74412
# 88312
# 107241
# 120939
# 136151
# 151063
# 172923
# 194258
# 209909
# 229968
# 243710
# 255125
# 267132
# 284901
# 302286
# 315643
# 331533
# 347123
# 364802
# 379575
#
# Disc length: 5292 seconds
#
#
# Revision: 0
# Processed by: cddbd v1.4PL0 Copyright (c) Steve Scherf et al.
# Submitted via: FreeRIP 2.00 
#
DISCID=6314aa19
DTITLE=宋祖英 - 美丽的心情
DYEAR=1900
DGENRE=Ballad
TTITLE0=Track-01
TTITLE1=Track-02
TTITLE2=Track-03
TTITLE3=Track-04
TTITLE4=越来越好
TTITLE5=Track-06
TTITLE6=Track-07
TTITLE7=Track-08
TTITLE8=Track-09
TTITLE9=Track-10
TTITLE10=Track-11
TTITLE11=Track-12
TTITLE12=Track-13
TTITLE13=Track-14
TTITLE14=Track-15
TTITLE15=Track-16
TTITLE16=Track-17
TTITLE17=Track-18
TTITLE18=Track-19
TTITLE19=Track-20
TTITLE20=Track-21
TTITLE21=Track-22
TTITLE22=Track-23
TTITLE23=Track-24
TTITLE24=Track-25
EXTD=
EXTT0=
EXTT1=
EXTT2=
EXTT3=
EXTT4=
EXTT5=
EXTT6=
EXTT7=
EXTT8=
EXTT9=
EXTT10=
EXTT11=
EXTT12=
EXTT13=
EXTT14=
EXTT15=
EXTT16=
EXTT17=
EXTT18=
EXTT19=
EXTT20=
EXTT21=
EXTT22=
EXTT23=
EXTT24=
PLAYORDER=
